<svg version="1.0" xmlns="http://www.w3.org/2000/svg" width="200.000000pt" height="200.000000pt" viewBox="0 0 200.000000 200.000000" preserveAspectRatio="xMidYMid meet">

<g transform="translate(0.000000,200.000000) scale(0.100000,-0.100000)" fill="#4682b4" stroke="none">
<path d="M1875 1853 c-33 -20 -460 -269 -950 -555 -490 -285 -898 -528 -908 -540 -17 -21 -17 -22 0 -39 11 -10 124 -45 276 -85 l258 -68 130 -227 c72 -125 136 -230 144 -232 29 -12 47 22 89 176 24 87 46 160 49 164 4 3 138 -29 298 -72 208 -56 296 -76 307 -69 9 6 46 126 99 324 302 1127 329 1230 321 1245 -14 24 -48 17 -113 -22z m1 -150 c-2 -10 -82 -308 -176 -663 -95 -355 -174 -648 -176 -651 -2 -4 -52 6 -111 22 -60 16 -186 50 -280 76 -95 25 -173 50 -173 54 0 7 732 953 883 1142 34 41 41 45 33 20z m-213 -96 c-37 -35 -192 -176 -343 -313 -151 -137 -377 -342 -502 -456 l-227 -207 -68 19 c-37 10 -131 35 -208 55 -77 21 -146 41 -154 45 -10 5 7 19 55 48 408 241 1509 880 1512 877 2 -2 -27 -32 -65 -68z m117 54 c0 -5 -80 -112 -178 -238 -201 -259 -631 -810 -673 -863 -19 -24 -39 -77 -65 -173 -20 -75 -40 -137 -43 -137 -3 0 -39 57 -78 128 -40 70 -86 150 -103 179 l-30 52 473 428 c259 235 521 474 582 530 60 56 111 102 113 103 1 0 2 -4 2 -9z" fill="#4682b4"/>
</g>
</svg>